PathFileType	4	(X/Y/Z)	/Users/itak/Documents/Research/Walk-IL/dataset/trc/00069_00006.trc
DataRate	CameraRate	NumFrames	NumMarkers	Units	OrigDataRate	OrigDataStartFrame	OrigNumFrames
100.000000	100.000000	4	53	mm	100.000000	286	765
Frame#	Time	RPSI			LPSI			L3			STRN			T10			C7			CLAV			RBAK			LBAK			LSHO			LUPA			LAEL			LAOL			LWTS			LWPS			LFRA			LIFD			LHPS			LHTS			RSHO			RUPA			RAEL			RAOL			RWTS			RWPS			RFRA			RIFD			RHTS			RHPS			RBHD			LFHD			RFHD			LBHD			LHIP			RHIP			RASI			LASI			LKNE			LTHI			LANK			LTIP			LTOE			LMT1			LMT5			LHEE			RKNE			RTHI			RANK			RTIP			RTOE			RMT1			RMT5			RHEE			
		X1	Y1	Z1	X2	Y2	Z2	X3	Y3	Z3	X4	Y4	Z4	X5	Y5	Z5	X6	Y6	Z6	X7	Y7	Z7	X8	Y8	Z8	X9	Y9	Z9	X10	Y10	Z10	X11	Y11	Z11	X12	Y12	Z12	X13	Y13	Z13	X14	Y14	Z14	X15	Y15	Z15	X16	Y16	Z16	X17	Y17	Z17	X18	Y18	Z18	X19	Y19	Z19	X20	Y20	Z20	X21	Y21	Z21	X22	Y22	Z22	X23	Y23	Z23	X24	Y24	Z24	X25	Y25	Z25	X26	Y26	Z26	X27	Y27	Z27	X28	Y28	Z28	X29	Y29	Z29	X30	Y30	Z30	X31	Y31	Z31	X32	Y32	Z32	X33	Y33	Z33	X34	Y34	Z34	X35	Y35	Z35	X36	Y36	Z36	X37	Y37	Z37	X38	Y38	Z38	X39	Y39	Z39	X40	Y40	Z40	X41	Y41	Z41	X42	Y42	Z42	X43	Y43	Z43	X44	Y44	Z44	X45	Y45	Z45	X46	Y46	Z46	X47	Y47	Z47	X48	Y48	Z48	X49	Y49	Z49	X50	Y50	Z50	X51	Y51	Z51	X52	Y52	Z52	X53	Y53	Z53	

287	2.86	-437.4386901855469	992.3115234375	305.2783203125	-606.89111328125	999.1444091796875	290.6054992675781	-533.0823974609375	1058.4833984375	296.4367370605469	-476.313232421875	1247.778564453125	40.1323127746582	-550.1920166015625	1187.998413085938	300.4775695800781	-535.8245239257812	1455.330688476562	236.7371978759766	-482.1177978515625	1362.879638671875	67.15641021728516	-484.5730895996094	1316.345825195312	319.4502258300781	-638.19873046875	1418.624389648438	230.8440551757812	-677.095458984375	1423.866943359375	112.5918502807617	-763.0420532226562	1304.735595703125	101.6694030761719	-801.8622436523438	1101.848388671875	44.5819091796875	-739.1040649414062	1065.480590820312	124.2250900268555	-717.145263671875	893.082763671875	-90.35028076171875	-789.1253662109375	869.0899047851562	-53.23064804077148	-805.7929077148438	1001.622802734375	-4.718092918395996	-690.6283569335938	719.2050170898438	-147.2161865234375	-775.7993774414062	800.6990966796875	-107.0574493408203	-714.6969604492188	821.3975219726562	-136.3497619628906	-351.9336242675781	1416.248779296875	228.2890472412109	-298.2698669433594	1354.264404296875	266.0554504394531	-264.03173828125	1110.993041992188	352.6730041503906	-341.7546081542969	1074.027099609375	304.2760620117188	-235.2303161621094	843.5028076171875	234.5968933105469	-211.6367034912109	839.2989501953125	318.5277099609375	-244.2380218505859	1028.670288085938	354.701171875	-265.9009399414062	658.930419921875	259.3465881347656	-229.9820404052734	736.1568603515625	228.8865814208984	-199.8591613769531	745.0375366210938	300.1666259765625	-578.9426879882812	1644.095581054688	128.0260314941406	-365.908447265625	1647.604248046875	100.3154144287109	-449.1800231933594	1666.596801757812	7.774330139160156	-483.5562133789062	1616.1064453125	222.8374328613281	-691.1729736328125	940.213134765625	180.6314392089844	-352.6485290527344	918.661865234375	245.3165588378906	-361.9566040039062	939.7258911132812	119.7765426635742	-625.8394165039062	940.6171264648438	73.38339996337891	-653.3994750976562	474.9884948730469	201.0105133056641	-684.4783325195312	620.275146484375	196.4179077148438	-706.3748168945312	66.89230346679688	456.2565002441406	-696.6375122070312	264.0413208007812	338.59716796875	-686.7711791992188	41.49328994750977	256.9789123535156	-636.9627685546875	44.5857048034668	306.2607116699219	-738.3298950195312	39.06628036499023	355.7830810546875	-635.2296752929688	82.73994445800781	514.05615234375	-386.1415405273438	501.7752380371094	30.43013381958008	-339.7467956542969	753.9722290039062	128.8160705566406	-450.2278442382812	33.63983154296875	-70.86123657226562	-394.1982116699219	380.1737670898438	8.998747825622559	-377.8865966796875	114.8465042114258	-251.4571075439453	-440.0206298828125	96.85115051269531	-228.5933837890625	-375.78759765625	74.39767456054688	-157.4730224609375	-522.1438598632812	30.40578269958496	-62.58530426025391	
288	2.87	-435.9715270996094	992.1226806640625	296.2914123535156	-605.2343139648438	998.8615112304688	280.0151977539062	-531.367919921875	1057.6455078125	286.1643981933594	-471.38427734375	1247.451049804688	31.14706993103027	-548.3623046875	1187.2763671875	290.7839660644531	-532.4671020507812	1454.72607421875	227.7625579833984	-477.2732849121094	1362.502075195312	58.38497543334961	-482.3553466796875	1315.5166015625	310.7283630371094	-634.9249267578125	1418.21044921875	220.8270111083984	-672.7047119140625	1423.520751953125	102.1818313598633	-758.48095703125	1304.284057617188	90.73904418945312	-796.9657592773438	1101.371704101562	34.00991821289062	-734.4208374023438	1065.137817382812	113.8737106323242	-711.501708984375	892.7174682617188	-100.4889297485352	-783.4529418945312	868.4949951171875	-63.50810241699219	-800.6137084960938	1001.06689453125	-15.19577598571777	-684.298828125	719.016357421875	-157.4027557373047	-769.8300170898438	800.1570434570312	-117.3395233154297	-708.9055786132812	821.1067504882812	-146.5747833251953	-348.635498046875	1415.406982421875	221.0306243896484	-295.3775024414062	1353.146728515625	259.1221618652344	-262.4530944824219	1109.595703125	345.3354797363281	-338.6252746582031	1072.343505859375	294.81201171875	-233.5335998535156	841.868896484375	228.0356597900391	-210.4681549072266	837.930908203125	312.16650390625	-242.9570007324219	1027.348999023438	347.5495300292969	-264.6828918457031	657.417236328125	253.0294647216797	-228.3064880371094	734.5438842773438	222.6935272216797	-198.7837371826172	743.5695190429688	294.1842346191406	-574.9818725585938	1643.629638671875	118.9537811279297	-361.7670593261719	1647.560913085938	93.31725311279297	-444.1187438964844	1666.556884765625	0.07226639986038208	-480.5558471679688	1615.636474609375	214.6213226318359	-688.7847900390625	939.6947631835938	169.4441070556641	-350.7827758789062	918.3984985351562	237.0742950439453	-358.8273315429688	939.2496337890625	111.4680557250977	-622.36279296875	940.04150390625	62.74881362915039	-651.5221557617188	473.76611328125	191.3770904541016	-682.302734375	619.5125122070312	186.1996917724609	-707.4324340820312	70.16759490966797	454.9221496582031	-696.5287475585938	265.6552429199219	333.2944641113281	-686.7442626953125	41.53337097167969	257.1051330566406	-637.2732543945312	44.78357696533203	305.9564208984375	-738.6920166015625	39.39416885375977	355.1607971191406	-636.4677124023438	88.03725433349609	512.3875732421875	-383.5367431640625	501.8669738769531	21.58368682861328	-337.4521789550781	754.3161010742188	119.5839080810547	-450.5718078613281	33.38776397705078	-72.58527374267578	-392.1554260253906	379.3870239257812	1.277770638465881	-377.4654846191406	108.6000366210938	-255.5510864257812	-439.7549133300781	91.62779235839844	-232.2887725830078	-375.9445190429688	70.95158386230469	-160.3292541503906	-522.4746704101562	30.78404998779297	-64.55264282226562	
289	2.88	-434.468017578125	992.3806762695312	287.3411560058594	-603.5642700195312	998.814697265625	269.3514709472656	-529.5668334960938	1057.133056640625	275.8519897460938	-466.3164672851562	1247.443359375	22.13964462280273	-546.3638916015625	1186.938110351562	281.043701171875	-528.9627075195312	1454.474853515625	218.7136688232422	-472.2767944335938	1362.445556640625	49.5794563293457	-479.9885864257812	1315.069702148438	301.9760437011719	-631.4816284179688	1418.15234375	210.7579803466797	-668.1515502929688	1423.503173828125	91.72663116455078	-753.7557983398438	1304.144653320312	79.83879089355469	-791.9154663085938	1101.16064453125	23.62569999694824	-729.4921875	1065.11474609375	103.6821975708008	-705.8593139648438	892.427001953125	-110.2448883056641	-777.784912109375	868.04541015625	-73.33953094482422	-795.3308715820312	1000.720275878906	-25.36696243286133	-678.0616455078125	718.8419189453125	-167.0450744628906	-763.91259765625	799.6990966796875	-127.1056289672852	-703.1464233398438	820.86083984375	-156.339599609375	-345.191162109375	1414.880249023438	213.6920928955078	-292.345947265625	1352.32275390625	252.0986938476562	-260.7603454589844	1108.427368164062	337.7611999511719	-334.98779296875	1070.78125	284.6529846191406	-231.7528533935547	840.481201171875	221.2737274169922	-209.2739410400391	836.7910766601562	305.6150817871094	-241.6072845458984	1026.262084960938	340.1585388183594	-263.464599609375	656.1251831054688	246.4773406982422	-226.5727691650391	733.1727294921875	216.3016815185547	-197.6823883056641	742.3424682617188	288.0039672851562	-570.8949584960938	1643.498657226562	109.8518142700195	-357.49658203125	1647.861572265625	86.30430603027344	-438.9214172363281	1666.888061523438	-7.646580696105957	-477.3963012695312	1615.469970703125	206.3151245117188	-686.1669311523438	939.3671264648438	158.0829315185547	-348.8495483398438	918.600830078125	228.982666015625	-355.4844360351562	939.2079467773438	103.2919158935547	-618.5708618164062	939.7572021484375	52.04216384887695	-649.5413818359375	472.5119018554688	180.5433502197266	-679.926513671875	618.8292236328125	175.1809539794922	-708.6653442382812	74.04317474365234	453.1763610839844	-696.4806518554688	267.6532592773438	327.1769104003906	-686.709716796875	41.59944152832031	257.3567504882812	-637.5994873046875	45.04232025146484	305.5994262695312	-739.1148681640625	39.80747222900391	354.3710327148438	-637.869140625	94.20954895019531	510.0538330078125	-380.6002502441406	502.3808288574219	12.79848766326904	-334.8992614746094	755.1221923828125	110.4195938110352	-450.6197204589844	33.40222549438477	-73.86245727539062	-389.7477722167969	379.0505676269531	-6.481265068054199	-377.4329528808594	102.4170761108398	-259.5124816894531	-439.7889709472656	86.55062866210938	-235.57763671875	-376.1465148925781	67.71480560302734	-163.0049896240234	-522.510009765625	31.47927284240723	-65.85459899902344	
290	2.89	-432.9384155273438	993.0862426757812	278.4513549804688	-601.886962890625	999.0224609375	258.629150390625	-527.6861572265625	1056.982421875	265.5511169433594	-461.1278686523438	1247.776733398438	13.13951969146729	-544.179931640625	1187.00537109375	271.2657165527344	-525.3463745117188	1454.582763671875	209.6005096435547	-467.1610412597656	1362.734375	40.76725006103516	-477.4994812011719	1315.025024414062	293.2055969238281	-627.9066772460938	1418.465209960938	200.6445159912109	-663.4603271484375	1423.834594726562	81.23617553710938	-748.884521484375	1304.344970703125	68.96695709228516	-786.708740234375	1101.239624023438	13.42387008666992	-724.3414916992188	1065.441284179688	93.66647338867188	-700.2236938476562	892.222900390625	-119.6118240356445	-772.1297607421875	867.7674560546875	-82.72046661376953	-789.94677734375	1000.612121582031	-35.23532104492188	-671.9487915039062	718.67724609375	-176.1152191162109	-758.06787109375	799.3438720703125	-136.3457641601562	-697.4318237304688	820.6649169921875	-165.6278686523438	-341.634033203125	1414.713623046875	206.2954406738281	-289.2072143554688	1351.848266601562	245.0078735351562	-258.9845581054688	1107.547607421875	329.9717102050781	-331.018798828125	1069.517578125	273.9637756347656	-229.8812866210938	839.3952026367188	214.3297119140625	-208.0553283691406	835.9383544921875	298.8882751464844	-240.2112274169922	1025.4677734375	332.5460205078125	-262.1996154785156	655.1220703125	239.7297668457031	-224.7721710205078	732.0963745117188	209.7305603027344	-196.5411376953125	741.4161376953125	281.6460266113281	-566.6902465820312	1643.705810546875	100.7260055541992	-353.1089477539062	1648.49365234375	79.28685760498047	-433.6061706542969	1667.566284179688	-15.38027000427246	-474.0948181152344	1615.621704101562	197.9463806152344	-683.298828125	939.2677001953125	146.5680236816406	-346.8433532714844	919.2666625976562	221.0762786865234	-351.9275817871094	939.6143798828125	95.29114532470703	-614.4268188476562	939.8175659179688	41.27846908569336	-647.508056640625	471.2698669433594	168.3686676025391	-677.36669921875	618.253173828125	163.2588195800781	-710.0830078125	78.59406280517578	450.9010620117188	-696.522705078125	270.0945434570312	320.10986328125	-686.6812744140625	41.68441009521484	257.7682189941406	-637.951904296875	45.38196563720703	305.1715698242188	-739.61669921875	40.33956527709961	353.3768310546875	-639.440673828125	101.3495941162109	506.8882141113281	-377.3805847167969	503.2811584472656	4.163166999816895	-332.1029968261719	756.3101806640625	101.4436111450195	-450.3521728515625	33.59391021728516	-74.89280700683594	-387.0057373046875	379.1372680664062	-14.21730041503906	-377.7147827148438	96.53284454345703	-263.3473510742188	-440.0443725585938	81.84165954589844	-238.5219268798828	-376.334228515625	64.75814819335938	-165.5813446044922	-522.2455444335938	32.39458465576172	-66.71315002441406	
